# xmcd
#
# Track frame offsets: 
#        150
#        7544
#        20493
#        26415
#        42378
#        57126
#        77536
#        88566
#        102368
#        120155
#        131864
#        144978
#        158682
#        171766
#        183140
#        194033
#        207923
#        219403
#        232671
#        245194
#        260364
#
# Disc length: 3657 seconds
#
# Revision: 0
# Processed by: cddbd v1.5.2PL0 Copyright (c) Steve Scherf et al.
# Submitted via: ExactAudioCopy v0.99pb1
#
DISCID=090e4715
DTITLE=Charlie Rich - The Silver Fox and Everytime You Touch Me (I Get
DTITLE=High)
DYEAR=2005
DGENRE=Country
TTITLE0=Medley:  Rondo A La Charlie
TTITLE1=Don't Put No Headstone on My Grave
TTITLE2=Charlie's Swing
TTITLE3=Break Up
TTITLE4=Behind Closed Doors
TTITLE5=Feel Like Going Home
TTITLE6=I Love My Friend
TTITLE7=Your Place is Here With Me
TTITLE8=My Elusive Dreams
TTITLE9=Whatever Happened
TTITLE10=Pieces of My Life
TTITLE11=Everytime You Touch Me (I Get High)
TTITLE12=All Over Me
TTITLE13=A Little Bit Here (A Little Bit There)
TTITLE14=A Mellow Melody
TTITLE15=Since I Fell For You
TTITLE16=Pass on By
TTITLE17=Rendezvous
TTITLE18=She
TTITLE19=You and I
TTITLE20=Midnight Blues
EXTD=
EXTT0=
EXTT1=
EXTT2=
EXTT3=
EXTT4=
EXTT5=
EXTT6=
EXTT7=
EXTT8=
EXTT9=
EXTT10=
EXTT11=
EXTT12=
EXTT13=
EXTT14=
EXTT15=
EXTT16=
EXTT17=
EXTT18=
EXTT19=
EXTT20=
PLAYORDER=
